<svg width="64" height="64" viewBox="0 0 64 64" fill="none" xmlns="http://www.w3.org/2000/svg">
  <rect width="64" height="64" rx="16" fill="#07111F"/>
  <rect x="6" y="6" width="52" height="52" rx="14" fill="url(#bg)"/>
  <path d="M19 28.5C19 24.3579 22.3579 21 26.5 21H38C42.4183 21 46 24.5817 46 29V39.5C46 41.433 44.433 43 42.5 43H23.5C21.0147 43 19 40.9853 19 38.5V28.5Z" fill="#EAF4FF"/>
  <path d="M23 28.5C23 26.567 24.567 25 26.5 25H38C40.2091 25 42 26.7909 42 29V30H23V28.5Z" fill="#38BDF8"/>
  <circle cx="39" cy="36.5" r="2.8" fill="#6366F1"/>
  <path d="M19 34H12.5C11.6716 34 11 33.3284 11 32.5C11 31.6716 11.6716 31 12.5 31H19V34Z" fill="#EAF4FF"/>
  <path d="M28 17C28 15.8954 28.8954 15 30 15H34C35.1046 15 36 15.8954 36 17V21H28V17Z" fill="#BBF7D0"/>
  <path d="M31.2 39.8C30.5 39.8 29.92 39.64 29.46 39.32C29 39 28.72 38.54 28.62 37.94H30.42C30.48 38.18 30.59 38.36 30.75 38.48C30.92 38.59 31.13 38.64 31.38 38.64C31.64 38.64 31.84 38.59 31.98 38.48C32.13 38.37 32.2 38.22 32.2 38.04C32.2 37.85 32.11 37.7 31.94 37.6C31.77 37.49 31.46 37.38 31 37.27C30.51 37.16 30.11 37.04 29.8 36.91C29.49 36.78 29.22 36.58 28.99 36.32C28.77 36.05 28.66 35.69 28.66 35.24C28.66 34.72 28.84 34.28 29.2 33.93C29.57 33.57 30.08 33.36 30.74 33.3V32.3H31.94V33.32C32.54 33.4 33.02 33.62 33.38 33.98C33.74 34.34 33.96 34.79 34.04 35.34H32.3C32.25 35.12 32.15 34.95 32 34.84C31.85 34.72 31.66 34.66 31.43 34.66C31.19 34.66 31 34.71 30.87 34.81C30.74 34.91 30.68 35.05 30.68 35.22C30.68 35.43 30.77 35.58 30.95 35.69C31.13 35.8 31.44 35.91 31.88 36.02C32.37 36.14 32.77 36.26 33.08 36.39C33.39 36.52 33.65 36.72 33.87 36.98C34.1 37.24 34.21 37.6 34.22 38.04C34.22 38.57 34.03 39 33.65 39.33C33.28 39.66 32.77 39.86 32.12 39.92V41H30.92V39.91C30.82 39.9 30.72 39.88 30.62 39.86C30.52 39.84 30.42 39.82 31.2 39.8Z" fill="#07111F"/>
  <defs>
    <linearGradient id="bg" x1="6" y1="6" x2="58" y2="58" gradientUnits="userSpaceOnUse">
      <stop stop-color="#38BDF8"/>
      <stop offset="0.55" stop-color="#6366F1"/>
      <stop offset="1" stop-color="#0EA5E9"/>
    </linearGradient>
  </defs>
</svg>
